<mxfile host="app.diagrams.net" modified="2020-10-05T13:24:07.933Z" agent="5.0 (X11; Linux x86_64) AppleWebKit/537.36 (KHTML, like Gecko) Chrome/85.0.4183.121 Safari/537.36" etag="Z4XzbZ2RsRWRC3WBwt3R" version="13.7.7" type="github">
  <diagram id="AMBd0R76h5gFlYD8Z7VQ" name="Page-1">
    <mxGraphModel dx="953" dy="544" grid="1" gridSize="10" guides="1" tooltips="1" connect="1" arrows="1" fold="1" page="1" pageScale="1" pageWidth="827" pageHeight="1169" math="0" shadow="0">
      <root>
        <mxCell id="0" />
        <mxCell id="1" parent="0" />
        <mxCell id="g2YfPCTuaOgY9jyY5gTF-1" value="" style="rounded=0;whiteSpace=wrap;html=1;" vertex="1" parent="1">
          <mxGeometry x="10" y="10" width="810" height="570" as="geometry" />
        </mxCell>
        <mxCell id="g2YfPCTuaOgY9jyY5gTF-2" value="" style="rounded=0;whiteSpace=wrap;html=1;" vertex="1" parent="1">
          <mxGeometry x="30" y="30" width="760" height="60" as="geometry" />
        </mxCell>
        <mxCell id="g2YfPCTuaOgY9jyY5gTF-3" value="" style="rounded=0;whiteSpace=wrap;html=1;" vertex="1" parent="1">
          <mxGeometry x="30" y="140" width="370" height="50" as="geometry" />
        </mxCell>
        <mxCell id="g2YfPCTuaOgY9jyY5gTF-4" value="" style="rounded=0;whiteSpace=wrap;html=1;" vertex="1" parent="1">
          <mxGeometry x="600" y="145" width="180" height="40" as="geometry" />
        </mxCell>
        <mxCell id="g2YfPCTuaOgY9jyY5gTF-5" value="&lt;font style=&quot;font-size: 20px&quot;&gt;RECHERCHE&lt;/font&gt;" style="text;html=1;strokeColor=none;fillColor=none;align=center;verticalAlign=middle;whiteSpace=wrap;rounded=0;" vertex="1" parent="1">
          <mxGeometry x="620" y="155" width="140" height="20" as="geometry" />
        </mxCell>
        <mxCell id="g2YfPCTuaOgY9jyY5gTF-8" value="&lt;font style=&quot;font-size: 20px&quot;&gt;BARRE DE RECHERCHE&lt;/font&gt;" style="text;html=1;strokeColor=none;fillColor=none;align=center;verticalAlign=middle;whiteSpace=wrap;rounded=0;" vertex="1" parent="1">
          <mxGeometry x="85" y="150" width="260" height="30" as="geometry" />
        </mxCell>
        <mxCell id="g2YfPCTuaOgY9jyY5gTF-10" value="" style="rounded=0;whiteSpace=wrap;html=1;" vertex="1" parent="1">
          <mxGeometry x="30" y="240" width="750" height="120" as="geometry" />
        </mxCell>
        <mxCell id="g2YfPCTuaOgY9jyY5gTF-11" value="&lt;font style=&quot;font-size: 25px&quot;&gt;RESULTAT&lt;/font&gt;" style="text;html=1;strokeColor=none;fillColor=none;align=center;verticalAlign=middle;whiteSpace=wrap;rounded=0;" vertex="1" parent="1">
          <mxGeometry x="245" y="270" width="340" height="60" as="geometry" />
        </mxCell>
        <mxCell id="g2YfPCTuaOgY9jyY5gTF-12" value="&lt;font style=&quot;font-size: 20px&quot;&gt;NOM APPLICATION&lt;/font&gt;" style="text;html=1;strokeColor=none;fillColor=none;align=center;verticalAlign=middle;whiteSpace=wrap;rounded=0;" vertex="1" parent="1">
          <mxGeometry x="283" y="40" width="260" height="40" as="geometry" />
        </mxCell>
      </root>
    </mxGraphModel>
  </diagram>
</mxfile>
